# xmcd
#
# Track frame offsets: 
#        182
#        22395
#        49472
#        71140
#        96832
#        115980
#        135740
#        168135
#        190122
#        208105
#        226690
#        243542
#
# Disc length: 3461 seconds
#
# Revision: 5
# Processed by: cddbd v1.4PL0 Copyright (c) Steve Scherf et al.
# Submitted via: ExactAudioCopy v0.90b4
#
DISCID=af0d830c
DTITLE=Lyle Lovett - Joshua Judges Ruth
DYEAR=1992
DGENRE=Country
TTITLE0=I've Been To Memphis
TTITLE1=Church
TTITLE2=She's Already Made Up Her Mind
TTITLE3=North Dakota
TTITLE4=You've Been So Good Up To Now
TTITLE5=All My Love Is Gone
TTITLE6=Since The Last Time
TTITLE7=Baltimore
TTITLE8=Family Reserve
TTITLE9=She's Leaving Me Because She Really Wants To
TTITLE10=Flyswatter - Ice Water Blues (Monty Trenckmann's Blues)
TTITLE11=She Makes Me Feel Good
EXTD=YEAR: 1992 ID3G:   2
EXTT0=
EXTT1=
EXTT2=
EXTT3=
EXTT4=
EXTT5=
EXTT6=
EXTT7=
EXTT8=
EXTT9=
EXTT10=
EXTT11=
PLAYORDER=
